<?xml version="1.0" encoding="UTF-8"?>
<svg width="16px" height="12px" viewBox="0 0 16 12" version="1.1" xmlns="http://www.w3.org/2000/svg" xmlns:xlink="http://www.w3.org/1999/xlink">
    <!-- Generator: Sketch 51.1 (57501) - http://www.bohemiancoding.com/sketch -->
    <title>Shape</title>
    <desc>Created with Sketch.</desc>
    <defs></defs>
    <g id="Login-and-Onboarding" stroke="none" stroke-width="1" fill="none" fill-rule="evenodd">
        <g id="Welcome_screen_Discord" transform="translate(-403.000000, -292.000000)" fill="#FFFFFF" fill-rule="nonzero">
            <g id="Group-2" transform="translate(396.000000, 203.000000)">
                <g id="Group-63-Copy" transform="translate(0.000000, 80.000000)">
                    <g id="Symbol" transform="translate(7.000000, 9.000000)">
                        <path d="M10.9024367,10.8062861 C11.883997,10.4870743 12.7123658,9.99052254 13.3648481,9.12155702 C9.79605375,11.2673698 6.27264949,11.2023452 2.75491899,9.16293633 C2.84002538,9.39347821 3.2371885,9.81909397 3.75917431,10.1442171 C4.16201119,10.392493 4.59889062,10.5934782 5.0300963,10.8181087 C4.99037999,10.8713107 4.9336424,10.9540693 4.87123105,11.036828 C4.72371332,11.2319019 4.55350055,11.4092418 4.42867786,11.6161383 C4.26413885,11.8880595 4.05988353,11.9649068 3.74782679,11.9294388 C2.46555729,11.7757442 1.33647928,11.3087491 0.411656582,10.3452023 C0.0769048088,10.0023452 -0.0195490919,9.63584274 0.0031459436,9.13929101 C0.116621121,6.86934027 0.632933178,4.69988215 1.45562821,2.60727131 C1.56910339,2.31761614 1.71662112,2.03978362 1.8300963,1.75012845 C1.90952892,1.5432319 2.04569914,1.40727131 2.22158566,1.28904471 C3.08399701,0.692000373 4.0088197,0.260473279 5.03577006,0.0772220475 C5.24569914,0.0417540672 5.45562821,0.012197417 5.67123105,0.000374756871 C5.75066367,-0.00553657318 5.83577006,0.0594880574 5.90952892,0.124512688 C5.05846509,0.42599052 4.23577006,0.745202343 3.46981261,1.21219742 C3.16342963,1.39544865 2.87406793,1.61416786 2.57903247,1.81515308 C2.51662112,1.85653239 2.45988353,1.91564569 2.38612467,1.98067032 C6.0230041,0.171803328 9.64286226,0.0831333776 13.2683942,1.93337968 C12.2981814,1.11761614 11.1804509,0.609241752 10.0059828,0.213182639 C10.0910892,0.0299314071 10.2102381,-0.0114479032 10.3974722,0.00628608692 C11.6683942,0.130424018 12.8031459,0.615153082 13.8357701,1.37180333 C13.932224,1.44273929 14.0230041,1.5432319 14.0797417,1.65554717 C14.8854154,3.35209889 15.4244225,5.13140924 15.7308055,6.99347821 C15.8726495,7.86244372 15.9464084,8.7432319 15.9634296,9.62402008 C15.9634296,9.73633535 15.9237133,9.87229594 15.8556282,9.96096589 C15.1747771,10.8831334 14.2726495,11.4506211 13.2059828,11.7402762 C12.7974722,11.8525915 12.3662665,11.8880595 11.9464084,11.9471728 C11.8783232,11.9589954 11.7818693,11.9353501 11.742153,11.8880595 C11.4584651,11.5274684 11.1917984,11.1786999 10.9024367,10.8062861 Z M5.43293318,8.46539939 C5.73931616,8.46539939 6.01165658,8.36490678 6.24995445,8.16392155 C6.64711757,7.82697574 6.77761403,7.37180333 6.84002538,6.85160628 C6.96484807,5.75801022 5.77903247,4.95998067 4.85988353,5.40924175 C4.21307502,5.72845357 3.87264949,6.55012845 4.07690481,7.31860136 C4.25846509,8.01022697 4.79747218,8.46539939 5.43293318,8.46539939 Z M10.4201672,8.48904471 C10.5790325,8.4476654 10.7492452,8.42993141 10.896763,8.36490678 C11.8215857,7.98067032 12.1166211,6.69200037 11.4811601,5.82894619 C10.9761956,5.14914323 10.0343516,5.0841186 9.45562821,5.69889692 C9.08116013,6.09495604 8.96768495,6.5796851 9.02442254,7.12352747 C9.11520268,7.86835505 9.72796864,8.46539939 10.4201672,8.48904471 Z" id="Shape"></path>
                    </g>
                </g>
            </g>
        </g>
    </g>
</svg>