<?xml version="1.0" encoding="UTF-8"?>
<svg width="194px" height="37px" viewBox="0 0 194 37" version="1.1" xmlns="http://www.w3.org/2000/svg" xmlns:xlink="http://www.w3.org/1999/xlink">
    <!-- Generator: Sketch 46.2 (44496) - http://www.bohemiancoding.com/sketch -->
    <title>Logo_Firstblood_Beta</title>
    <desc>Created with Sketch.</desc>
    <defs></defs>
    <g id="****Icons" stroke="none" stroke-width="1" fill="none" fill-rule="evenodd">
        <g id="Icons" transform="translate(-836.000000, -541.000000)">
            <g id="Logo_Firstblood_Beta" transform="translate(836.000000, 541.000000)">
                <g id="Logo_Firstblood-Copy">
                    <path d="M40.8931743,13.5275279 L34.741913,13.5275279 L34.741913,17.6708378 L39.240758,17.6708378 L39.240758,20.7783203 L34.741913,20.7783203 L34.741913,28.2888794 L31.2348993,28.2888794 L31.2348993,10.0831909 L40.8931743,10.0831909 L40.8931743,13.5275279 Z M44.4514862,28.4606312 L44.4514862,10.0831909 L48.009798,10.0831909 L48.009798,28.4606312 L44.4514862,28.4606312 Z M52.5180661,28.3333889 L52.5180661,10.008063 L58.2503371,10.008063 C61.8586912,10.008063 64.2898654,12.3728519 64.2898654,16.636234 L64.2898654,17.1563965 C64.2898654,19.9893317 63.0870807,21.8866245 61.1423974,22.7709008 L64.1874462,28.3333889 L60.3236844,28.3333889 L57.8925102,23.6025107 L56.0496059,23.6025107 L56.0496059,28.3333889 L52.5180661,28.3333889 Z M56.0496059,13.4391851 L56.0496059,20.1973967 L57.8156959,20.1973967 C59.3507026,20.1973967 60.7839304,19.5211854 60.7839304,17.1043803 L60.7839304,16.5842178 C60.7839304,14.0627299 59.4019122,13.4391851 57.8156959,13.4391851 L56.0496059,13.4391851 Z M67.3610952,15.0507136 C67.3610952,11.6976159 69.715455,9.67028246 73.2975642,9.67028246 C76.7785346,9.67028246 79.184104,12.0350714 79.184104,15.8042991 L75.7031337,15.8042991 C75.7031337,13.85499 74.7563968,12.9453558 73.2463547,12.9453558 C71.7369527,12.9453558 70.8926349,13.6729331 70.8926349,15.0507136 C70.8926349,18.6899007 79.4139069,16.5318764 79.4139069,23.0826733 C79.4139069,26.5658116 76.9571279,28.6451613 73.2975642,28.6451613 C69.6386407,28.6451613 67.1306521,26.2277059 67.1306521,22.3024295 L70.6615518,22.3024295 C70.6615518,24.4344456 71.7369527,25.3180717 73.2975642,25.3180717 C74.7820016,25.3180717 75.8830073,24.6165025 75.8830073,23.1086814 C75.8830073,19.625543 67.3610952,21.548844 67.3610952,15.0507136 Z M92.7726907,13.4652582 L89.0107078,13.4652582 L89.0107078,28.3334539 L85.4791681,28.3334539 L85.4791681,13.4652582 L81.7171852,13.4652582 L81.7171852,10.008128 L92.7726907,10.008128 L92.7726907,13.4652582 Z M95.6637908,10.008063 L101.191223,10.008063 C104.749008,10.008063 107.179542,11.6192664 107.179542,14.9990225 L107.179542,15.2584535 C107.179542,17.2337707 106.335224,18.5075187 104.901997,19.1317137 C106.437644,19.8072748 107.358776,21.0550147 107.358776,23.0823482 L107.358776,23.3164213 C107.358776,26.6961773 104.927601,28.3333889 101.370457,28.3333889 L95.6637908,28.3333889 L95.6637908,10.008063 Z M120.589792,28.3335839 L111.069933,28.3335839 L111.069933,10.0076079 L114.601473,10.0076079 L114.601473,24.9024619 L120.589792,24.9024619 L120.589792,28.3335839 Z M123.096884,22.2767464 L123.096884,16.0380471 C123.096884,12.2948275 125.579268,9.66995735 129.162017,9.66995735 C132.719802,9.66995735 135.22779,12.2948275 135.22779,16.0380471 L135.22779,22.2767464 C135.22779,25.9939579 132.719802,28.5934701 129.162017,28.5934701 C125.579268,28.5934701 123.096884,25.9939579 123.096884,22.2767464 Z M138.476653,22.2767464 L138.476653,16.0380471 C138.476653,12.2948275 140.959037,9.66995735 144.541786,9.66995735 C148.099571,9.66995735 150.60756,12.2948275 150.60756,16.0380471 L150.60756,22.2767464 C150.60756,25.9939579 148.099571,28.5934701 144.541786,28.5934701 C140.959037,28.5934701 138.476653,25.9939579 138.476653,22.2767464 Z M154.394571,28.3333889 L154.394571,10.008063 L160.33168,10.008063 C163.91443,10.008063 166.396813,12.2428113 166.396813,16.7142584 L166.396813,21.5491691 C166.396813,25.9679498 163.91443,28.3333889 160.33168,28.3333889 L154.394571,28.3333889 Z M176.961987,3.99427754 L176.961987,6 L176,6 L176,2 L176.949944,2 L178.006022,4.29184549 L179.061347,2 L180,2 L180,6 L179.049304,6 L179.049304,3.98283262 L178.319157,5.50357654 L177.681596,5.50357654 L176.961987,3.99427754 Z M175,2.85979971 L173.999199,2.85979971 L173.999199,6 L172.987179,6 L172.987179,2.85979971 L172,2.85979971 L172,2 L175,2 L175,2.85979971 Z M157.926111,13.4391851 L157.926111,24.9282749 L159.922004,24.9282749 C161.611279,24.9282749 162.890878,24.2527138 162.890878,20.6648928 L162.890878,17.1043803 C162.890878,15.1290631 162.378783,13.4391851 159.922004,13.4391851 L157.926111,13.4391851 Z M101.242433,24.9282749 C102.598846,24.9282749 103.852841,24.5901693 103.852841,22.796909 L103.852841,22.5108196 C103.852841,20.9516324 102.598846,20.5355024 101.370457,20.5355024 L99.1953306,20.5355024 L99.1953306,24.9282749 L101.242433,24.9282749 Z M101.370457,17.7539332 C102.522032,17.7539332 103.673607,17.3638114 103.673607,15.6745835 L103.673607,15.3884942 C103.673607,13.8032988 102.394008,13.4391851 101.06384,13.4391851 L99.1953306,13.4391851 L99.1953306,17.7539332 L101.370457,17.7539332 Z M131.69561,22.4067871 L131.69561,15.9086567 C131.69561,13.8553151 130.492826,13.1004292 129.162017,13.1004292 C127.908023,13.1004292 126.654669,13.7772907 126.654669,15.8826486 L126.654669,22.3807789 C126.654669,24.4341205 127.831849,25.1616979 129.162017,25.1616979 C130.364802,25.1616979 131.69561,24.5121449 131.69561,22.4067871 Z M147.07538,22.4067871 L147.07538,15.9086567 C147.07538,13.8553151 145.872595,13.1004292 144.541786,13.1004292 C143.287792,13.1004292 142.033798,13.7772907 142.033798,15.8826486 L142.033798,22.3807789 C142.033798,24.4341205 143.211618,25.1616979 144.541786,25.1616979 C145.744571,25.1616979 147.07538,24.5121449 147.07538,22.4067871 Z" id="Combined-Shape" fill="#FFFFFF"></path>
                    <path d="M1.35876225,18.5003174 L6.69673363,18.5003174 C7.44560798,18.5003174 8.05287024,19.123122 8.05287024,19.8919461 L8.05287024,28.1566457 C8.05287024,28.5255034 8.19571911,28.8797593 8.44987877,29.1413245 L15.7054879,36.589585 C16.5594891,37.4663365 18.0201342,36.8454365 18.0201342,35.6049062 L18.0201342,1.3950938 C18.0201342,0.154563538 16.5594891,-0.466336462 15.7054879,0.41041497 L0.399634167,16.1233751 C-0.454367047,17.0007614 0.151040041,18.5003174 1.35876225,18.5003174" id="Fill-1" fill="#D0021B"></path>
                </g>
                <path d="M172,23 L173.678967,23 C174.444038,23 174.999383,23.1210658 175.345018,23.3632011 C175.690654,23.6053364 175.863469,23.9904214 175.863469,24.5184679 C175.863469,24.8768828 175.787824,25.1709975 175.636531,25.4008208 C175.485239,25.6306441 175.284134,25.7688096 175.03321,25.8153215 L175.03321,25.8563611 C175.375155,25.9411769 175.62177,26.099862 175.773063,26.3324213 C175.924355,26.5649806 176,26.8741431 176,27.2599179 C176,27.8071163 175.822265,28.2339246 175.46679,28.5403557 C175.111314,28.8467868 174.628539,29 174.01845,29 L172,29 L172,23 Z M173,25 L173.859189,25 C174.260145,25 174.550516,24.9600004 174.73031,24.88 C174.910104,24.7999996 175,24.6676932 175,24.4830769 C175,24.3107684 174.902149,24.1871799 174.706444,24.1123077 C174.510739,24.0374355 174.201275,24 173.778043,24 L173,24 L173,25 Z M173,26 L173,28 L173.893805,28 C174.271388,28 174.550147,27.9142616 174.730088,27.7427822 C174.91003,27.5713027 175,27.3088382 175,26.9553806 C175,26.318457 174.616523,26 173.849558,26 L173,26 Z M181,29 L178,29 L178,23 L181,23 L181,24.0424077 L179.104513,24.0424077 L179.104513,25.3597811 L180.868171,25.3597811 L180.868171,26.4021888 L179.104513,26.4021888 L179.104513,27.9493844 L181,27.9493844 L181,29 Z M185.561594,29 L184.438406,29 L184.438406,24.0588235 L183,24.0588235 L183,23 L187,23 L187,24.0588235 L185.561594,24.0588235 L185.561594,29 Z M192.581741,29 L192.131635,27.5776567 L189.868365,27.5776567 L189.418259,29 L188,29 L190.191083,23 L191.800425,23 L194,29 L192.581741,29 Z M192,27 C191.485562,25.5055218 191.195976,24.6603485 191.131234,24.464455 C191.066491,24.2685614 191.020123,24.1137446 190.992126,24 C190.87664,24.4044254 190.545934,25.4044154 190,27 L192,27 Z" id="Badge_Beta-Copy" fill="#FF7B46"></path>
            </g>
        </g>
    </g>
</svg>